<svg width="24" height="24" viewBox="0 0 24 24" fill="none" xmlns="http://www.w3.org/2000/svg">
<path d="M0.458438 20.9139C-0.152813 21.5045 -0.152813 22.4619 0.458438 23.0524C1.06969 23.643 2.06074 23.643 2.67199 23.0524L0.458438 20.9139ZM13.1067 12.9708C13.718 12.3802 13.718 11.4229 13.1067 10.8323C12.4955 10.2417 11.5046 10.2417 10.8933 10.8323L13.1067 12.9708ZM10.8933 10.8323C10.282 11.4229 10.282 12.3802 10.8933 12.9708C11.5046 13.5614 12.4955 13.5614 13.1067 12.9708L10.8933 10.8323ZM23.5415 2.88924C24.1528 2.29867 24.1528 1.34116 23.5415 0.750599C22.9303 0.160038 21.9394 0.160038 21.3281 0.750599L23.5415 2.88924ZM13.1067 10.8323C12.4955 10.2417 11.5046 10.2417 10.8933 10.8323C10.282 11.4229 10.282 12.3802 10.8933 12.9708L13.1067 10.8323ZM21.3281 23.0524C21.9394 23.643 22.9303 23.643 23.5415 23.0524C24.1528 22.4619 24.1528 21.5045 23.5415 20.9139L21.3281 23.0524ZM10.8933 12.9708C11.5046 13.5614 12.4955 13.5614 13.1067 12.9708C13.718 12.3802 13.718 11.4229 13.1067 10.8323L10.8933 12.9708ZM2.67199 0.750599C2.06074 0.160038 1.06969 0.160038 0.458438 0.750599C-0.152813 1.34116 -0.152813 2.29867 0.458438 2.88924L2.67199 0.750599ZM2.67199 23.0524L13.1067 12.9708L10.8933 10.8323L0.458438 20.9139L2.67199 23.0524ZM13.1067 12.9708L23.5415 2.88924L21.3281 0.750599L10.8933 10.8323L13.1067 12.9708ZM10.8933 12.9708L21.3281 23.0524L23.5415 20.9139L13.1067 10.8323L10.8933 12.9708ZM13.1067 10.8323L2.67199 0.750599L0.458438 2.88924L10.8933 12.9708L13.1067 10.8323Z" fill="#969696"/>
</svg>
