<svg width="70" height="40" viewBox="0 0 70 40" fill="none" xmlns="http://www.w3.org/2000/svg">
<path d="M14.1323 2.87519C13.0188 4.5948 10.1067 8.64966 7.66569 11.8978C3.76861 17.0566 3.27612 17.7996 3.72578 17.7996C4.15403 17.7996 4.68935 17.2264 6.44518 14.9336C7.64428 13.3626 8.67208 12.0676 8.71491 12.0676C8.77914 12.0676 8.58643 12.471 8.28666 12.9593C5.26749 18.1818 2.65516 22.5551 1.45605 24.4445C0.663789 25.6971 0 26.801 0 26.8647C0 27.0558 2.46244 26.7586 3.08341 26.4826C3.38318 26.334 4.53946 24.9965 5.65291 23.4467C6.78778 21.9182 8.47937 19.7952 9.42152 18.7125C12.3979 15.3582 15.7382 13.0654 16.6161 13.7872C17.13 14.2118 16.8731 14.9761 15.0958 18.5427C13.233 22.2366 12.6762 24.0624 13.0402 25.3786C13.3186 26.3977 13.6826 26.7373 14.5177 26.7586C15.6526 26.801 17.1729 25.8245 19.5497 23.5317L21.8408 21.3025V22.4914C21.8408 23.9987 22.5902 25.5485 23.7037 26.2915C24.7957 27.0345 27.044 27.0558 28.5429 26.3127C29.7634 25.7183 31.6049 24.1049 32.6327 22.7037C33.2109 21.9394 33.5963 21.621 34.3029 21.4299C34.8168 21.2813 35.5877 20.8779 36.0373 20.517C36.487 20.1774 36.8938 19.9226 36.9366 19.9651C37.0223 20.05 30.4272 31.5352 27.3866 36.5879C26.3374 38.35 25.4809 39.836 25.4809 39.8997C25.4809 40.2394 27.922 39.645 28.5429 39.1779C29.2281 38.6472 31.7976 34.6135 35.9517 27.5653C38.4141 23.4043 39.0993 22.4277 41.7116 19.4343C44.9235 15.7616 47.9855 13.3626 49.1632 13.5962C50.191 13.7872 50.0411 15.5068 48.7564 18.2879C48.0498 19.8165 47.9641 19.9014 47.1718 20.0288C43.0606 20.6869 41.5403 21.2176 40.3841 22.4489C39.5918 23.2557 39.3563 25.1239 39.913 25.9518C40.6838 27.1407 43.1677 27.1619 45.7372 25.9943C47.1718 25.3362 49.1204 23.4467 50.1268 21.7271C50.8334 20.5383 50.9833 20.4109 52.2252 19.9863L53.5528 19.498L53.4029 19.9863C52.5678 22.5551 52.8033 24.3384 54.1523 25.6758C55.223 26.7586 56.4006 27.0558 58.3278 26.7373C61.7324 26.1641 64.5374 24.1685 68.9056 19.1159C69.9762 17.9058 70.019 17.7996 69.548 17.7996C69.1839 17.7996 68.4987 18.3941 67.0213 19.9651C63.2527 23.9775 60.3406 25.8881 57.9638 25.9094C57.1929 25.9094 56.5505 25.8032 56.2293 25.5697C55.5656 25.1451 55.1587 23.8076 55.4157 22.8523L55.587 22.1517L57.3 22.0243C60.2977 21.7908 62.6959 20.8355 64.3233 19.222C67.2354 16.3136 66.0791 12.8107 62.2034 12.8531C59.7196 12.8744 57.3856 14.2118 55.3086 16.7806C54.6662 17.5873 53.8311 18.4365 53.4671 18.6488C52.8033 19.0522 51.6471 19.3919 51.4972 19.2433C51.4329 19.2008 51.54 18.6913 51.7113 18.1181C52.3537 16.0376 51.9897 13.9571 50.8762 13.214C50.4265 12.9381 50.0197 12.8744 49.0133 12.9805C47.2147 13.1291 45.78 14.042 43.1035 16.7169C40.6196 19.1796 40.6624 18.9885 43.339 14.9549L44.7308 12.8744L43.2533 12.9593C41.5189 13.0442 41.2192 13.2777 39.185 15.9102C37.3007 18.3304 35.7804 19.9014 34.8382 20.3684C34.3885 20.602 33.9817 20.7718 33.9389 20.7293C33.8961 20.6869 34.0459 20.1137 34.2815 19.4556C34.4956 18.7974 34.7526 17.736 34.8168 17.0778C35.2665 13.299 31.9261 11.6855 27.8577 13.7235C26.5087 14.3817 24.3032 16.4197 23.4467 17.7996C23.1255 18.3304 22.0549 19.6679 21.0699 20.7718C17.5155 24.8267 15.053 26.6524 14.6248 25.5485C14.4963 25.1663 16.1451 21.6634 17.13 20.2411C18.2649 18.6276 19.2713 16.2923 19.2713 15.337C19.2713 13.7235 18.008 12.7894 16.0808 12.9593C14.3036 13.1291 13.1473 13.8722 10.4493 16.5046C9.07892 17.8633 8.07253 18.7762 8.17959 18.5427C8.30807 18.3092 9.7213 15.9102 11.3486 13.2353C17.5155 2.93888 17.6011 2.74781 17.1729 1.28297C17.023 0.837143 16.7446 0.3064 16.5305 0.115334C16.1879 -0.20311 16.038 -0.0332718 14.1323 2.87519ZM33.1894 14.3392C34.3029 15.3158 34.3671 18.0332 33.3179 18.3092C33.0396 18.3728 32.4614 18.8187 32.0332 19.2857C31.1124 20.3047 30.9411 21.5785 31.6906 21.7696C31.9261 21.8333 32.1188 21.9607 32.1188 22.0668C32.1188 22.1517 31.5621 22.8098 30.8983 23.5317C29.4208 25.1239 28.0076 25.8881 26.4873 25.9094C25.5238 25.9094 25.3096 25.8245 24.7957 25.2513C24.0463 24.4021 24.0035 23.4255 24.6887 21.5573C25.6308 18.9673 28.7356 14.9973 30.5129 14.1057C31.4979 13.5962 32.44 13.6811 33.1894 14.3392ZM64.2805 14.3817C64.9014 14.9336 64.9871 15.1459 64.9871 16.0376C64.9871 18.6276 61.7324 20.8567 57.5141 21.1327L55.8011 21.2601L56.6148 19.7952C57.4927 18.2242 59.0558 16.1862 60.2121 15.1247C61.7966 13.6174 63.167 13.3839 64.2805 14.3817ZM46.8721 21.6634C44.4524 25.1663 41.7759 26.7586 40.5768 25.4423C39.6774 24.4658 40.8123 22.6825 42.8679 21.8545C43.8957 21.4511 47.0862 20.7506 47.3003 20.8992C47.3431 20.9416 47.1504 21.2813 46.8721 21.6634Z" fill="white"/>
<path d="M41.4888 31.1663H41.8265L44.129 36.6154H43.7145L42.9547 34.8195H40.353L39.5932 36.6154H39.171L41.4888 31.1663ZM42.8473 34.4971L41.6577 31.6421L40.4451 34.4971H42.8473ZM49.3822 31.5193H47.3867V36.6154H46.9953V31.5193H44.9998V31.1663H49.3822V31.5193ZM55.0113 36.2623V36.6154H51.3811V31.1663H54.9422V31.5193H51.7725V33.6606H54.5431V33.9983H51.7725V36.2623H55.0113ZM57.2316 36.6154V31.1663H57.623V36.2623H60.8772V36.6154H57.2316ZM62.8424 36.6154V31.1663H63.2338V36.6154H62.8424ZM69.4451 36.2623V36.6154H65.8149V31.1663H69.376V31.5193H66.2063V33.6606H68.9769V33.9983H66.2063V36.2623H69.4451Z" fill="white"/>
</svg>
