<svg width="30" height="30" viewBox="0 0 30 30" fill="none" xmlns="http://www.w3.org/2000/svg">
<path d="M15 0C11.0218 0 7.20644 1.58035 4.3934 4.3934C1.58035 7.20644 0 11.0218 0 15C0 18.9782 1.58035 22.7936 4.3934 25.6066C7.20644 28.4196 11.0218 30 15 30C18.9782 30 22.7936 28.4196 25.6066 25.6066C28.4196 22.7936 30 18.9782 30 15C30 11.0218 28.4196 7.20644 25.6066 4.3934C22.7936 1.58035 18.9782 0 15 0Z" fill="#29B6F6"/>
<path d="M22.4625 8.25L19.653 22.5945C19.653 22.5945 19.5322 23.25 18.7192 23.25C18.2872 23.25 18.0645 23.0445 18.0645 23.0445L11.979 17.9948L9.0015 16.494L5.18025 15.4778C5.18025 15.4778 4.5 15.2813 4.5 14.7188C4.5 14.25 5.19975 14.0265 5.19975 14.0265L21.1868 7.6755C21.1868 7.6755 21.675 7.49925 22.0312 7.5C22.2502 7.5 22.5 7.59375 22.5 7.875C22.5 8.0625 22.4625 8.25 22.4625 8.25Z" fill="white"/>
<path d="M19.4227 10.6469C19.296 10.4819 19.062 10.4519 18.897 10.5772L9 16.4999C9 16.4999 10.5795 20.9189 10.8203 21.6839C11.0617 22.4497 11.2552 22.4677 11.2552 22.4677L11.9783 17.9939L19.3522 11.1719C19.5173 11.0467 19.548 10.8119 19.4227 10.6469Z" fill="#CFD8DC"/>
</svg>
