<svg width="30" height="30" viewBox="0 0 30 30" fill="none" xmlns="http://www.w3.org/2000/svg">
<path d="M15 0C11.0218 0 7.20644 1.58035 4.3934 4.3934C1.58035 7.20644 0 11.0218 0 15C0 18.9782 1.58035 22.7936 4.3934 25.6066C7.20644 28.4196 11.0218 30 15 30C18.9782 30 22.7936 28.4196 25.6066 25.6066C28.4196 22.7936 30 18.9782 30 15C30 11.0218 28.4196 7.20644 25.6066 4.3934C22.7936 1.58035 18.9782 0 15 0Z" fill="#1976D2"/>
<path d="M23.9528 10.5308C23.9872 10.4175 24.0037 10.3125 23.9993 10.2188C23.988 9.94725 23.8012 9.75 23.3617 9.75H21.3982C20.9025 9.75 20.6737 10.05 20.5402 10.3508C20.5402 10.3508 19.3163 12.87 17.9055 14.5312C17.448 15.012 17.2155 15 16.968 15C16.8353 15 16.5 14.8395 16.5 14.3992V10.5105C16.5 9.99 16.3702 9.75 15.951 9.75H12.4642C12.159 9.75 12 9.99 12 10.2308C12 10.731 12.6735 10.851 12.75 12.2527V14.97C12.75 15.63 12.6353 15.75 12.3878 15.75C11.7203 15.75 10.4062 13.5 9.5265 10.551C9.336 9.9705 9.1455 9.75 8.64975 9.75H6.6675C6.09525 9.75 6 10.0305 6 10.3305C6 10.8713 6.45 13.7948 8.90625 17.1562C10.6875 19.5938 13.0343 21 15.1117 21C16.3702 21 16.4993 20.6798 16.4993 20.1795V17.9505C16.5 17.3498 16.6372 17.25 17.0377 17.25C17.3235 17.25 17.9062 17.4375 19.0312 18.75C20.3287 20.2635 20.5642 21 21.3082 21H23.2717C23.7277 21 23.9895 20.8088 24 20.4375C24.0023 20.343 23.9888 20.2373 23.958 20.1195C23.8125 19.6875 23.145 18.6315 22.3125 17.625C21.8512 17.0677 21.396 16.5158 21.1868 16.2158C21.0465 16.02 20.9932 15.882 21 15.75C21.0068 15.6112 21.0788 15.4792 21.1868 15.2947C21.1673 15.2947 23.7052 11.7315 23.9528 10.5308Z" fill="white"/>
</svg>
